<?xml version="1.0" encoding="iso-8859-1"?>
<!-- Generator: Adobe Illustrator 27.0.0, SVG Export Plug-In . SVG Version: 6.00 Build 0)  -->
<svg version="1.1" id="Layer_1" xmlns="http://www.w3.org/2000/svg" xmlns:xlink="http://www.w3.org/1999/xlink" x="0px" y="0px"
	 viewBox="0 0 500 500" style="enable-background:new 0 0 500 500;" xml:space="preserve">
<g id="watermark_1_">
	<g>
		<g id="watermark" style="opacity:0.61;">
			<g>
				<g>
					<g>
						<g>
							<polygon style="fill:#FFFFFF;" points="213.765,461.172 208.204,474.017 205.268,474.017 199.726,461.172 202.938,461.172 
								206.846,470.347 210.81,461.172 							"/>
						</g>
						<g>
							<path style="fill:#FFFFFF;" d="M223.507,469.741h-7.469c0.275,1.23,1.321,1.982,2.826,1.982c1.046,0,1.798-0.312,2.477-0.954
								l1.523,1.651c-0.917,1.046-2.294,1.597-4.074,1.597c-3.413,0-5.634-2.147-5.634-5.083c0-2.954,2.257-5.083,5.267-5.083
								c2.899,0,5.138,1.945,5.138,5.12C223.562,469.191,223.526,469.503,223.507,469.741 M216.002,468.071h4.863
								c-0.202-1.248-1.138-2.055-2.422-2.055C217.139,466.016,216.204,466.805,216.002,468.071"/>
						</g>
						<g>
							<path style="fill:#FFFFFF;" d="M224.735,468.934c0-2.973,2.294-5.083,5.505-5.083c2.074,0,3.707,0.899,4.423,2.514
								l-2.22,1.193c-0.532-0.936-1.321-1.358-2.221-1.358c-1.45,0-2.587,1.009-2.587,2.734c0,1.725,1.138,2.734,2.587,2.734
								c0.899,0,1.688-0.404,2.221-1.358l2.22,1.211c-0.716,1.578-2.349,2.495-4.423,2.495
								C227.029,474.017,224.735,471.907,224.735,468.934"/>
						</g>
						<g>
							<path style="fill:#FFFFFF;" d="M242.828,473.393c-0.587,0.422-1.45,0.624-2.331,0.624c-2.33,0-3.688-1.193-3.688-3.542
								v-4.055h-1.523v-2.202h1.523v-2.404h2.863v2.404h2.459v2.202h-2.459v4.019c0,0.844,0.458,1.303,1.229,1.303
								c0.422,0,0.844-0.128,1.156-0.367L242.828,473.393z"/>
						</g>
					</g>
					<g>
						<path style="fill:#FFFFFF;" d="M262.474,463.997v2.643c-0.238-0.018-0.422-0.037-0.642-0.037
							c-1.578,0-2.624,0.862-2.624,2.753v4.661h-2.863v-9.873h2.734v1.303C259.776,464.493,260.951,463.997,262.474,463.997"/>
					</g>
					<g>
						<path style="fill:#FFFFFF;" d="M263.299,472.53l1.009-2.239c1.083,0.789,2.697,1.339,4.239,1.339
							c1.762,0,2.477-0.587,2.477-1.376c0-2.404-7.469-0.752-7.469-5.524c0-2.184,1.762-4,5.413-4c1.615,0,3.267,0.385,4.459,1.138
							l-0.918,2.257c-1.193-0.679-2.422-1.009-3.56-1.009c-1.761,0-2.44,0.66-2.44,1.468c0,2.367,7.468,0.734,7.468,5.45
							c0,2.147-1.78,3.982-5.45,3.982C266.492,474.017,264.437,473.411,263.299,472.53"/>
					</g>
					<g>
						<path style="fill:#FFFFFF;" d="M285.428,469.741h-7.469c0.275,1.23,1.321,1.982,2.826,1.982c1.046,0,1.798-0.312,2.477-0.954
							l1.523,1.651c-0.918,1.046-2.294,1.597-4.074,1.597c-3.413,0-5.634-2.147-5.634-5.083c0-2.954,2.257-5.083,5.267-5.083
							c2.9,0,5.138,1.945,5.138,5.12C285.484,469.191,285.447,469.503,285.428,469.741 M277.923,468.071h4.863
							c-0.202-1.248-1.138-2.055-2.422-2.055C279.061,466.016,278.125,466.805,277.923,468.071"/>
					</g>
					<g>
						<path style="fill:#FFFFFF;" d="M297.007,469.741h-7.469c0.275,1.23,1.321,1.982,2.826,1.982c1.046,0,1.798-0.312,2.477-0.954
							l1.523,1.651c-0.918,1.046-2.294,1.597-4.074,1.597c-3.413,0-5.634-2.147-5.634-5.083c0-2.954,2.257-5.083,5.267-5.083
							c2.899,0,5.138,1.945,5.138,5.12C297.062,469.191,297.025,469.503,297.007,469.741 M289.501,468.071h4.863
							c-0.202-1.248-1.138-2.055-2.422-2.055C290.639,466.016,289.703,466.805,289.501,468.071"/>
					</g>
					<g>
						<polygon style="fill:#FFFFFF;" points="303.208,470.145 301.831,471.503 301.831,474.017 298.969,474.017 298.969,460.401 
							301.831,460.401 301.831,468.108 306.016,464.144 309.429,464.144 305.318,468.328 309.796,474.017 306.327,474.017 						"/>
					</g>
					<g>
						<path style="fill:#FFFFFF;" d="M256.601,475.359L256.601,475.359l-2.86-2.86c-0.435,0.508-0.953,0.943-1.534,1.284
							c-0.092,0.069-0.186,0.136-0.283,0.199l3.027,3.027c0.456,0.456,1.195,0.456,1.65,0
							C257.057,476.554,257.057,475.815,256.601,475.359"/>
					</g>
					<g>
						<path style="fill:#FFFFFF;" d="M249.984,463.244c0.221-0.173,0.495-0.281,0.797-0.281c0.042,0,0.083,0.002,0.124,0.006
							c-0.214-0.156-0.478-0.249-0.764-0.249c-0.395,0-0.744,0.18-0.981,0.458c-0.051,0-0.1,0.006-0.151,0.008
							c0.039-0.077,0.064-0.162,0.064-0.255c0-0.234-0.143-0.434-0.346-0.519c0.087,0.126,0.138,0.279,0.138,0.445
							c0,0.122-0.031,0.237-0.081,0.341c-2.811,0.201-5.03,2.539-5.03,5.4c0,2.993,2.426,5.42,5.42,5.42
							c2.993,0,5.42-2.426,5.42-5.42C254.595,465.879,252.593,463.635,249.984,463.244 M247.983,464.656
							c0.435,0,0.844,0.112,1.199,0.309c0.374-0.245,0.82-0.387,1.299-0.387c0.711,0,1.348,0.312,1.784,0.806
							c-0.435-0.379-1.004-0.61-1.627-0.61c-0.449,0-0.87,0.12-1.234,0.329c-0.079,0.046-0.156,0.096-0.229,0.15
							c-0.065-0.048-0.133-0.093-0.204-0.134c-0.369-0.219-0.8-0.344-1.26-0.344c-0.3,0-0.588,0.054-0.854,0.152
							C247.196,464.754,247.578,464.656,247.983,464.656 M251.772,469.098c0.115,0.305,0.181,0.634,0.181,0.979
							c0,1.534-1.244,2.777-2.778,2.777c-1.534,0-2.777-1.243-2.777-2.777c0-0.345,0.066-0.674,0.181-0.979
							c-0.62-0.382-1.035-1.064-1.035-1.846c0-1.197,0.971-2.168,2.168-2.168c0.565,0,1.078,0.218,1.463,0.572
							c0.386-0.354,0.899-0.572,1.464-0.572c1.197,0,2.168,0.971,2.168,2.168C252.807,468.034,252.392,468.716,251.772,469.098"/>
					</g>
					<g>
						<path style="fill:#FFFFFF;" d="M251.666,467.061c0,0.497-0.404,0.901-0.901,0.901c-0.497,0-0.901-0.404-0.901-0.901
							s0.404-0.901,0.901-0.901c0.101,0,0.197,0.017,0.287,0.047c-0.03,0.062-0.045,0.132-0.045,0.204
							c0,0.273,0.221,0.494,0.494,0.494c0.05,0,0.099-0.008,0.146-0.022C251.66,466.941,251.666,467,251.666,467.061"/>
					</g>
					<g>
						<path style="fill:#FFFFFF;" d="M248.255,467.061c0,0.376-0.305,0.681-0.681,0.681c-0.376,0-0.681-0.305-0.681-0.681
							s0.305-0.681,0.681-0.681c0.076,0,0.149,0.013,0.217,0.035c-0.023,0.047-0.034,0.1-0.034,0.155
							c0,0.206,0.167,0.374,0.374,0.374c0.038,0,0.075-0.006,0.11-0.017C248.25,466.97,248.255,467.015,248.255,467.061"/>
					</g>
					<g>
						<g>
							<g>
								<rect x="242.908" y="467.83" style="fill:#FFFFFF;" width="0.616" height="0.616"/>
							</g>
							<g>
								<rect x="254.827" y="467.83" style="fill:#FFFFFF;" width="0.616" height="0.616"/>
							</g>
							<g>
								<path style="fill:#FFFFFF;" d="M255.205,468.082h-0.14c0-3.248-2.642-5.89-5.89-5.89c-3.248,0-5.89,2.642-5.89,5.89h-0.14
									c0-1.611,0.627-3.125,1.766-4.264c1.139-1.139,2.653-1.766,4.264-1.766c1.611,0,3.125,0.627,4.264,1.766
									C254.578,464.957,255.205,466.471,255.205,468.082"/>
							</g>
						</g>
						<g>
							<rect x="248.868" y="461.814" style="fill:#FFFFFF;" width="0.616" height="0.616"/>
						</g>
						<g>
							<rect x="244.95" y="462.052" style="fill:#FFFFFF;" width="8.45" height="0.14"/>
						</g>
						<g>
							<path style="fill:#FFFFFF;" d="M245.174,462.15c0,0.108-0.088,0.196-0.196,0.196c-0.108,0-0.196-0.088-0.196-0.196
								c0-0.108,0.088-0.196,0.196-0.196C245.086,461.954,245.174,462.042,245.174,462.15"/>
						</g>
						<g>
							<path style="fill:#FFFFFF;" d="M253.596,462.15c0,0.108-0.088,0.196-0.196,0.196c-0.108,0-0.196-0.088-0.196-0.196
								c0-0.108,0.088-0.196,0.196-0.196C253.509,461.954,253.596,462.042,253.596,462.15"/>
						</g>
					</g>
				</g>
				<g>
					<path style="fill:#FFFFFF;" d="M314.356,473.409c0,1.559-2.364,1.559-2.364,0C311.993,471.851,314.356,471.851,314.356,473.409
						z"/>
				</g>
				<g>
					<g>
						<g>
							<path style="fill:#FFFFFF;" d="M161.739,466.549l1.772,6.088l1.855-6.088h2.215l-2.823,8.14h-2.33l-0.837-2.396l-0.722-2.708
								l-0.722,2.708l-0.837,2.396h-2.33l-2.839-8.14h2.231l1.855,6.088l1.756-6.088H161.739z"/>
						</g>
						<g>
							<path style="fill:#FFFFFF;" d="M176.713,466.549l1.772,6.088l1.855-6.088h2.215l-2.823,8.14h-2.33l-0.837-2.396l-0.722-2.708
								l-0.722,2.708l-0.837,2.396h-2.33l-2.839-8.14h2.231l1.855,6.088l1.756-6.088H176.713z"/>
						</g>
						<g>
							<path style="fill:#FFFFFF;" d="M191.687,466.549l1.772,6.088l1.855-6.088h2.215l-2.823,8.14h-2.33l-0.837-2.396l-0.722-2.708
								l-0.722,2.708l-0.837,2.396h-2.33l-2.839-8.14h2.231l1.855,6.088l1.756-6.088H191.687z"/>
						</g>
					</g>
					<g>
						<path style="fill:#FFFFFF;" d="M200.908,473.52c0,1.559-2.364,1.559-2.364,0C198.545,471.962,200.908,471.962,200.908,473.52z
							"/>
					</g>
					<g>
						<path style="fill:#FFFFFF;" d="M322.71,473.409c-0.935,0.919-1.919,1.28-3.117,1.28c-2.346,0-4.3-1.411-4.3-4.282
							s1.953-4.284,4.3-4.284c1.149,0,2.035,0.329,2.921,1.199l-1.264,1.329c-0.476-0.428-1.066-0.64-1.623-0.64
							c-1.346,0-2.33,0.985-2.33,2.396c0,1.542,1.05,2.362,2.297,2.362c0.64,0,1.28-0.18,1.772-0.672L322.71,473.409z"/>
					</g>
					<g>
						<path style="fill:#FFFFFF;" d="M331.805,470.472c0,2.33-1.591,4.217-4.217,4.217c-2.626,0-4.201-1.887-4.201-4.217
							c0-2.314,1.609-4.217,4.185-4.217C330.149,466.255,331.805,468.158,331.805,470.472z M325.389,470.472
							c0,1.231,0.739,2.38,2.199,2.38c1.46,0,2.199-1.149,2.199-2.38c0-1.215-0.854-2.396-2.199-2.396
							C326.144,468.077,325.389,469.258,325.389,470.472z"/>
					</g>
					<g>
						<path style="fill:#FFFFFF;" d="M338.572,474.689v-4.332c0-1.068-0.559-2.035-1.658-2.035c-1.082,0-1.722,0.967-1.722,2.035
							v4.332h-2.003v-8.107h1.855l0.148,0.985c0.426-0.82,1.362-1.116,2.133-1.116c0.969,0,1.937,0.394,2.396,1.51
							c0.723-1.149,1.658-1.478,2.708-1.478c2.297,0,3.43,1.412,3.43,3.84v4.365h-2.003v-4.365c0-1.066-0.442-1.97-1.526-1.97
							c-1.082,0-1.756,0.935-1.756,2.003v4.332H338.572z"/>
					</g>
				</g>
			</g>
		</g>
		<g style="opacity:0.61;">
			<g>
				<g>
					<path style="fill:#FFFFFF;" d="M345.988,431.299c-0.006-1.224-0.959-2.121-2.189-2.14c-0.924-0.014-0.832,0.12-0.834-0.867
						c-0.003-1.097-0.007-2.194,0.003-3.292c0.003-0.379-0.112-0.691-0.362-0.976c-2.342-2.668-4.678-5.342-7.019-8.011
						c-0.12-0.137-0.275-0.244-0.414-0.366c-6.214,0-12.427,0-18.641,0c-0.794,0.293-1.14,0.868-1.138,1.709
						c0.01,3.748,0.004,7.496,0.004,11.243c0,0.556-0.003,0.589-0.55,0.551c-1.497-0.102-2.516,0.986-2.497,2.492
						c0.044,3.476,0.013,6.953,0.014,10.429c0.001,1.58,0.867,2.443,2.45,2.449c0.582,0.002,0.582,0.002,0.582,0.6
						c0,2.219-0.001,4.438,0.001,6.657c0.001,1.192,0.58,1.771,1.768,1.771c8.013,0.001,16.027,0.001,24.04,0
						c1.168,0,1.755-0.583,1.757-1.745c0.002-2.256,0-4.512,0.001-6.768c0-0.512,0.002-0.511,0.52-0.515
						c0.271-0.002,0.541,0.008,0.809-0.058c0.996-0.246,1.69-1.044,1.694-2.069C346.003,438.696,346.005,434.997,345.988,431.299z
						 M317.537,417.162c5.337,0,10.674,0,16.01,0c0.548,0,0.554,0.007,0.554,0.561c0.001,2.243-0.001,4.486,0.001,6.73
						c0.001,0.811,0.249,1.059,1.06,1.059c1.91,0.001,3.821,0,5.731,0.001c0.458,0,0.479,0.021,0.481,0.483
						c0.003,0.887,0.002,1.775,0,2.662c-0.001,0.477-0.024,0.498-0.504,0.499c-3.895,0.001-7.79,0-11.684,0
						c-3.882,0-7.765,0-11.647,0c-0.55,0-0.552-0.001-0.552-0.561c-0.001-3.624-0.001-7.247,0-10.871
						C316.987,417.166,316.991,417.162,317.537,417.162z M340.822,451.579c-3.883,0.001-7.766,0-11.65,0c-3.871,0-7.742,0-11.613,0
						c-0.572,0-0.574-0.002-0.574-0.579c-0.001-1.997-0.001-3.994,0.001-5.991c0-0.464,0.023-0.486,0.478-0.487
						c7.803-0.001,15.607-0.001,23.41,0c0.478,0,0.499,0.02,0.499,0.503c0.002,1.997,0.001,3.994,0,5.991
						C341.375,451.574,341.37,451.579,340.822,451.579z"/>
				</g>
				<g>
					<g>
						<rect x="327.418" y="417.053" style="fill:#FFFFFF;" width="1.757" height="1.054"/>
					</g>
					<g>
						<rect x="325.662" y="418.107" style="fill:#FFFFFF;" width="1.757" height="1.054"/>
					</g>
					<g>
						<rect x="327.418" y="419.161" style="fill:#FFFFFF;" width="1.757" height="1.054"/>
					</g>
					<g>
						<rect x="325.662" y="420.215" style="fill:#FFFFFF;" width="1.757" height="1.054"/>
					</g>
					<g>
						<rect x="327.418" y="421.269" style="fill:#FFFFFF;" width="1.757" height="1.054"/>
					</g>
					<g>
						<rect x="325.662" y="422.323" style="fill:#FFFFFF;" width="1.757" height="1.054"/>
					</g>
					<g>
						<rect x="327.418" y="423.378" style="fill:#FFFFFF;" width="1.757" height="1.054"/>
					</g>
					<g>
						<rect x="325.662" y="424.432" style="fill:#FFFFFF;" width="1.757" height="1.054"/>
					</g>
					<g>
						<rect x="327.418" y="425.486" style="fill:#FFFFFF;" width="1.757" height="1.054"/>
					</g>
					<g>
						<rect x="325.662" y="426.54" style="fill:#FFFFFF;" width="1.757" height="1.054"/>
					</g>
					<g>
						<rect x="327.418" y="427.594" style="fill:#FFFFFF;" width="1.757" height="1.054"/>
					</g>
					<g>
						<rect x="325.662" y="428.648" style="fill:#FFFFFF;" width="1.757" height="1.054"/>
					</g>
				</g>
			</g>
			<g>
				<path style="fill:#FFFFFF;" d="M187.637,431.299c-0.006-1.224-0.959-2.121-2.189-2.14c-0.924-0.014-0.832,0.12-0.834-0.867
					c-0.003-1.097-0.007-2.194,0.003-3.292c0.003-0.379-0.112-0.691-0.362-0.976c-2.342-2.668-4.678-5.342-7.019-8.011
					c-0.12-0.137-0.275-0.244-0.414-0.366c-6.214,0-12.427,0-18.641,0c-0.794,0.293-1.14,0.868-1.138,1.709
					c0.01,3.748,0.004,7.496,0.004,11.243c0,0.556-0.003,0.589-0.55,0.551c-1.497-0.102-2.516,0.986-2.497,2.492
					c0.044,3.476,0.013,6.953,0.014,10.429c0.001,1.58,0.867,2.443,2.45,2.449c0.582,0.002,0.582,0.002,0.582,0.6
					c0,2.219-0.001,4.438,0.001,6.657c0.001,1.192,0.58,1.771,1.768,1.771c8.013,0.001,16.027,0.001,24.04,0
					c1.168,0,1.755-0.583,1.757-1.745c0.002-2.256,0-4.512,0.001-6.768c0-0.512,0.002-0.511,0.52-0.515
					c0.271-0.002,0.541,0.008,0.809-0.058c0.996-0.246,1.69-1.044,1.694-2.069C187.652,438.696,187.655,434.997,187.637,431.299z
					 M159.187,417.162c5.337,0,10.674,0,16.01,0c0.548,0,0.554,0.007,0.554,0.561c0.001,2.243-0.001,4.486,0.001,6.73
					c0.001,0.811,0.249,1.059,1.06,1.059c1.91,0.001,3.821,0,5.731,0.001c0.458,0,0.479,0.021,0.481,0.483
					c0.003,0.887,0.002,1.775,0,2.662c-0.001,0.477-0.024,0.498-0.504,0.499c-3.895,0.001-7.79,0-11.684,0
					c-3.882,0-7.765,0-11.647,0c-0.55,0-0.552-0.001-0.552-0.561c-0.001-3.624-0.001-7.247,0-10.871
					C158.636,417.166,158.64,417.162,159.187,417.162z M182.472,451.579c-3.883,0.001-7.766,0-11.65,0c-3.871,0-7.742,0-11.613,0
					c-0.572,0-0.574-0.002-0.574-0.579c-0.001-1.997-0.001-3.994,0.001-5.991c0-0.464,0.023-0.486,0.478-0.487
					c7.803-0.001,15.607-0.001,23.41,0c0.478,0,0.499,0.02,0.499,0.503c0.002,1.997,0.001,3.994,0,5.991
					C183.024,451.574,183.019,451.579,182.472,451.579z"/>
			</g>
			<g>
				<path style="fill:#FFFFFF;" d="M159.779,440.669v-7.897h2.779c0.375,0,0.726,0.061,1.053,0.182
					c0.327,0.121,0.612,0.292,0.855,0.513c0.242,0.221,0.434,0.483,0.573,0.789c0.14,0.305,0.21,0.642,0.21,1.009
					c0,0.375-0.07,0.715-0.21,1.02c-0.14,0.305-0.331,0.568-0.573,0.789c-0.243,0.221-0.528,0.392-0.855,0.513
					c-0.327,0.121-0.678,0.182-1.053,0.182h-1.29v2.901H159.779z M162.58,436.356c0.39,0,0.684-0.111,0.882-0.331
					c0.199-0.22,0.298-0.474,0.298-0.761c0-0.14-0.024-0.276-0.072-0.408c-0.048-0.132-0.121-0.248-0.221-0.347
					c-0.099-0.099-0.223-0.178-0.37-0.237c-0.147-0.059-0.32-0.089-0.518-0.089h-1.312v2.173H162.58z"/>
				<path style="fill:#FFFFFF;" d="M166.308,432.771h1.731l3.177,5.294h0.088l-0.088-1.522v-3.772h1.478v7.897h-1.566l-3.353-5.592
					h-0.088l0.088,1.522v4.07h-1.467V432.771z"/>
				<path style="fill:#FFFFFF;" d="M177.922,436.334h3.872c0.022,0.089,0.04,0.195,0.055,0.32c0.014,0.125,0.022,0.25,0.022,0.375
					c0,0.507-0.077,0.985-0.231,1.434c-0.154,0.449-0.397,0.849-0.728,1.202c-0.353,0.375-0.776,0.666-1.268,0.871
					c-0.493,0.206-1.055,0.309-1.688,0.309c-0.574,0-1.114-0.103-1.622-0.309c-0.507-0.206-0.948-0.492-1.323-0.86
					c-0.375-0.367-0.673-0.803-0.894-1.307c-0.221-0.504-0.331-1.053-0.331-1.649c0-0.595,0.11-1.145,0.331-1.649
					c0.221-0.504,0.518-0.939,0.894-1.307c0.375-0.367,0.816-0.654,1.323-0.86c0.507-0.206,1.048-0.309,1.622-0.309
					c0.64,0,1.211,0.11,1.715,0.331c0.504,0.221,0.935,0.526,1.296,0.915l-1.025,1.004c-0.258-0.272-0.544-0.48-0.861-0.623
					c-0.316-0.143-0.695-0.215-1.136-0.215c-0.361,0-0.703,0.065-1.026,0.193c-0.324,0.129-0.607,0.311-0.85,0.546
					c-0.242,0.235-0.436,0.52-0.579,0.855c-0.143,0.335-0.215,0.708-0.215,1.119c0,0.412,0.072,0.785,0.215,1.12
					c0.143,0.335,0.338,0.62,0.584,0.855c0.246,0.235,0.531,0.418,0.855,0.546c0.323,0.129,0.669,0.193,1.037,0.193
					c0.419,0,0.773-0.061,1.064-0.182c0.29-0.121,0.538-0.278,0.744-0.469c0.148-0.132,0.275-0.3,0.381-0.502
					c0.106-0.202,0.189-0.428,0.248-0.678h-2.482V436.334z"/>
			</g>
			<g>
				<path style="fill:#FFFFFF;" d="M224.019,431.299c-0.006-1.224-0.959-2.121-2.189-2.14c-0.924-0.014-0.832,0.12-0.834-0.867
					c-0.003-1.097-0.007-2.194,0.003-3.292c0.003-0.379-0.112-0.691-0.362-0.976c-2.342-2.668-4.678-5.342-7.019-8.011
					c-0.12-0.137-0.275-0.244-0.414-0.366c-6.214,0-12.427,0-18.641,0c-0.794,0.293-1.14,0.868-1.138,1.709
					c0.01,3.748,0.004,7.496,0.004,11.243c0,0.556-0.003,0.589-0.55,0.551c-1.497-0.102-2.516,0.986-2.497,2.492
					c0.044,3.476,0.013,6.953,0.014,10.429c0.001,1.58,0.867,2.443,2.45,2.449c0.582,0.002,0.582,0.002,0.582,0.6
					c0,2.219-0.001,4.438,0.001,6.657c0.001,1.192,0.58,1.771,1.768,1.771c8.013,0.001,16.027,0.001,24.04,0
					c1.168,0,1.755-0.583,1.757-1.745c0.002-2.256,0-4.512,0.001-6.768c0-0.512,0.002-0.511,0.52-0.515
					c0.271-0.002,0.541,0.008,0.809-0.058c0.997-0.246,1.69-1.044,1.694-2.069C224.034,438.696,224.036,434.997,224.019,431.299z
					 M195.568,417.162c5.337,0,10.674,0,16.01,0c0.548,0,0.554,0.007,0.554,0.561c0.001,2.243-0.001,4.486,0.001,6.73
					c0.001,0.811,0.249,1.059,1.06,1.059c1.91,0.001,3.821,0,5.731,0.001c0.458,0,0.479,0.021,0.481,0.483
					c0.003,0.887,0.002,1.775,0,2.662c-0.001,0.477-0.024,0.498-0.504,0.499c-3.895,0.001-7.79,0-11.684,0
					c-3.882,0-7.765,0-11.647,0c-0.55,0-0.552-0.001-0.552-0.561c-0.001-3.624-0.001-7.247,0-10.871
					C195.018,417.166,195.022,417.162,195.568,417.162z M218.854,451.579c-3.883,0.001-7.766,0-11.65,0c-3.871,0-7.742,0-11.613,0
					c-0.572,0-0.574-0.002-0.574-0.579c-0.001-1.997-0.001-3.994,0.001-5.991c0-0.464,0.023-0.486,0.478-0.487
					c7.803-0.001,15.607-0.001,23.41,0c0.478,0,0.499,0.02,0.499,0.503c0.002,1.997,0.001,3.994,0,5.991
					C219.406,451.574,219.401,451.579,218.854,451.579z"/>
			</g>
			<g>
				<path style="fill:#FFFFFF;" d="M205.111,432.771h1.699l2.967,7.897h-1.644l-0.651-1.886h-3.044l-0.651,1.886h-1.643
					L205.111,432.771z M206.997,437.415l-0.706-1.974l-0.287-0.96h-0.088l-0.287,0.96l-0.706,1.974H206.997z"/>
				<path style="fill:#FFFFFF;" d="M211.331,434.536c-0.125,0-0.245-0.024-0.359-0.072c-0.114-0.048-0.213-0.114-0.298-0.199
					c-0.084-0.084-0.151-0.182-0.198-0.292c-0.048-0.11-0.072-0.232-0.072-0.364s0.024-0.254,0.072-0.364
					c0.048-0.11,0.114-0.208,0.198-0.292c0.084-0.084,0.184-0.151,0.298-0.198c0.114-0.048,0.233-0.072,0.359-0.072
					c0.257,0,0.478,0.09,0.662,0.27c0.184,0.181,0.276,0.399,0.276,0.656s-0.092,0.476-0.276,0.656
					C211.809,434.446,211.589,434.536,211.331,434.536z M210.615,440.669v-5.404h1.445v5.404H210.615z"/>
			</g>
			<g>
				<path style="fill:#FFFFFF;" d="M261.044,431.299c-0.006-1.224-0.959-2.121-2.189-2.14c-0.924-0.014-0.832,0.12-0.834-0.867
					c-0.003-1.097-0.007-2.194,0.003-3.292c0.003-0.379-0.112-0.691-0.362-0.976c-2.342-2.668-4.678-5.342-7.019-8.011
					c-0.12-0.137-0.275-0.244-0.414-0.366c-6.214,0-12.427,0-18.641,0c-0.794,0.293-1.14,0.868-1.138,1.709
					c0.01,3.748,0.004,7.496,0.004,11.243c0,0.556-0.003,0.589-0.55,0.551c-1.497-0.102-2.516,0.986-2.497,2.492
					c0.044,3.476,0.013,6.953,0.014,10.429c0.001,1.58,0.867,2.443,2.45,2.449c0.582,0.002,0.582,0.002,0.582,0.6
					c0,2.219-0.001,4.438,0.001,6.657c0.001,1.192,0.58,1.771,1.768,1.771c8.013,0.001,16.027,0.001,24.04,0
					c1.168,0,1.755-0.583,1.757-1.745c0.002-2.256,0-4.512,0.001-6.768c0-0.512,0.002-0.511,0.52-0.515
					c0.271-0.002,0.541,0.008,0.809-0.058c0.996-0.246,1.69-1.044,1.694-2.069C261.059,438.696,261.061,434.997,261.044,431.299z
					 M232.593,417.162c5.337,0,10.674,0,16.01,0c0.548,0,0.554,0.007,0.554,0.561c0.001,2.243-0.001,4.486,0.001,6.73
					c0.001,0.811,0.249,1.059,1.06,1.059c1.91,0.001,3.821,0,5.731,0.001c0.458,0,0.479,0.021,0.481,0.483
					c0.003,0.887,0.002,1.775,0,2.662c-0.001,0.477-0.024,0.498-0.504,0.499c-3.895,0.001-7.79,0-11.684,0
					c-3.882,0-7.765,0-11.647,0c-0.55,0-0.552-0.001-0.552-0.561c-0.001-3.624-0.001-7.247,0-10.871
					C232.042,417.166,232.047,417.162,232.593,417.162z M255.878,451.579c-3.883,0.001-7.766,0-11.65,0c-3.871,0-7.742,0-11.613,0
					c-0.572,0-0.574-0.002-0.574-0.579c-0.001-1.997-0.001-3.994,0.001-5.991c0-0.464,0.023-0.486,0.478-0.487
					c7.803-0.001,15.607-0.001,23.41,0c0.478,0,0.499,0.02,0.499,0.503c0.002,1.997,0.001,3.994,0,5.991
					C256.431,451.574,256.426,451.579,255.878,451.579z"/>
			</g>
			<g>
				<path style="fill:#FFFFFF;" d="M236.361,440.845c-0.338,0-0.662-0.048-0.971-0.143c-0.309-0.095-0.592-0.239-0.849-0.43
					c-0.257-0.191-0.481-0.425-0.673-0.7c-0.191-0.276-0.342-0.597-0.452-0.965l1.401-0.551c0.103,0.397,0.283,0.726,0.54,0.987
					c0.257,0.261,0.596,0.392,1.015,0.392c0.154,0,0.303-0.02,0.447-0.061c0.143-0.04,0.272-0.099,0.386-0.176
					s0.204-0.175,0.27-0.292c0.066-0.118,0.099-0.254,0.099-0.408c0-0.147-0.026-0.279-0.077-0.397
					c-0.051-0.117-0.138-0.227-0.259-0.331c-0.121-0.103-0.28-0.202-0.475-0.298c-0.195-0.095-0.435-0.195-0.722-0.298l-0.485-0.176
					c-0.213-0.073-0.429-0.173-0.645-0.298c-0.217-0.125-0.413-0.276-0.59-0.452c-0.177-0.176-0.322-0.384-0.436-0.623
					c-0.114-0.239-0.171-0.509-0.171-0.81c0-0.309,0.06-0.597,0.182-0.866c0.121-0.268,0.294-0.503,0.518-0.706
					c0.224-0.202,0.492-0.36,0.805-0.474s0.66-0.171,1.042-0.171c0.397,0,0.74,0.053,1.031,0.16
					c0.291,0.107,0.537,0.243,0.739,0.408c0.202,0.165,0.366,0.348,0.491,0.546c0.125,0.199,0.217,0.386,0.276,0.563l-1.312,0.551
					c-0.074-0.221-0.208-0.419-0.402-0.596c-0.195-0.176-0.462-0.265-0.8-0.265c-0.324,0-0.592,0.075-0.805,0.226
					c-0.213,0.151-0.32,0.348-0.32,0.59c0,0.235,0.103,0.436,0.309,0.601c0.206,0.165,0.533,0.325,0.982,0.48l0.497,0.165
					c0.316,0.111,0.605,0.237,0.866,0.381c0.261,0.143,0.485,0.314,0.673,0.513c0.187,0.199,0.331,0.425,0.43,0.678
					c0.1,0.254,0.149,0.546,0.149,0.877c0,0.412-0.083,0.767-0.248,1.064c-0.165,0.298-0.377,0.542-0.634,0.734
					c-0.258,0.191-0.548,0.335-0.872,0.43C236.986,440.797,236.67,440.845,236.361,440.845z"/>
				<path style="fill:#FFFFFF;" d="M239.516,432.771h1.61l1.633,4.754l0.287,1.015h0.088l0.309-1.015l1.699-4.754h1.61l-2.879,7.897
					h-1.566L239.516,432.771z"/>
				<path style="fill:#FFFFFF;" d="M251.097,436.334h3.871c0.022,0.089,0.04,0.195,0.055,0.32c0.015,0.125,0.023,0.25,0.023,0.375
					c0,0.507-0.078,0.985-0.232,1.434c-0.154,0.449-0.397,0.849-0.728,1.202c-0.353,0.375-0.775,0.666-1.268,0.871
					c-0.493,0.206-1.055,0.309-1.688,0.309c-0.574,0-1.114-0.103-1.621-0.309c-0.507-0.206-0.949-0.492-1.324-0.86
					c-0.375-0.367-0.673-0.803-0.894-1.307c-0.22-0.504-0.331-1.053-0.331-1.649c0-0.595,0.11-1.145,0.331-1.649
					c0.221-0.504,0.518-0.939,0.894-1.307c0.375-0.367,0.816-0.654,1.324-0.86c0.507-0.206,1.047-0.309,1.621-0.309
					c0.64,0,1.211,0.11,1.715,0.331c0.504,0.221,0.936,0.526,1.296,0.915l-1.026,1.004c-0.257-0.272-0.544-0.48-0.861-0.623
					c-0.316-0.143-0.694-0.215-1.136-0.215c-0.36,0-0.702,0.065-1.026,0.193c-0.323,0.129-0.607,0.311-0.849,0.546
					c-0.243,0.235-0.436,0.52-0.579,0.855c-0.143,0.335-0.215,0.708-0.215,1.119c0,0.412,0.072,0.785,0.215,1.12
					c0.143,0.335,0.338,0.62,0.585,0.855c0.246,0.235,0.531,0.418,0.854,0.546c0.324,0.129,0.669,0.193,1.037,0.193
					c0.419,0,0.774-0.061,1.064-0.182c0.29-0.121,0.539-0.278,0.745-0.469c0.147-0.132,0.274-0.3,0.38-0.502
					c0.107-0.202,0.189-0.428,0.248-0.678h-2.482V436.334z"/>
			</g>
			<g>
				<path style="fill:#FFFFFF;" d="M297.3,431.299c-0.006-1.224-0.959-2.121-2.189-2.14c-0.924-0.014-0.832,0.12-0.834-0.867
					c-0.003-1.097-0.007-2.194,0.003-3.292c0.003-0.379-0.112-0.691-0.362-0.976c-2.342-2.668-4.678-5.342-7.019-8.011
					c-0.12-0.137-0.275-0.244-0.414-0.366c-6.214,0-12.427,0-18.641,0c-0.794,0.293-1.14,0.868-1.138,1.709
					c0.01,3.748,0.004,7.496,0.004,11.243c0,0.556-0.003,0.589-0.55,0.551c-1.497-0.102-2.516,0.986-2.497,2.492
					c0.044,3.476,0.013,6.953,0.014,10.429c0.001,1.58,0.867,2.443,2.45,2.449c0.582,0.002,0.582,0.002,0.582,0.6
					c0,2.219-0.001,4.438,0.001,6.657c0.001,1.192,0.58,1.771,1.768,1.771c8.013,0.001,16.027,0.001,24.04,0
					c1.168,0,1.755-0.583,1.757-1.745c0.002-2.256,0-4.512,0.001-6.768c0-0.512,0.002-0.511,0.52-0.515
					c0.271-0.002,0.541,0.008,0.809-0.058c0.996-0.246,1.69-1.044,1.694-2.069C297.315,438.696,297.318,434.997,297.3,431.299z
					 M268.85,417.162c5.337,0,10.674,0,16.01,0c0.548,0,0.554,0.007,0.554,0.561c0.001,2.243-0.001,4.486,0.001,6.73
					c0.001,0.811,0.249,1.059,1.06,1.059c1.91,0.001,3.821,0,5.731,0.001c0.458,0,0.479,0.021,0.481,0.483
					c0.003,0.887,0.002,1.775,0,2.662c-0.001,0.477-0.024,0.498-0.504,0.499c-3.895,0.001-7.79,0-11.684,0
					c-3.882,0-7.765,0-11.647,0c-0.55,0-0.552-0.001-0.552-0.561c-0.001-3.624-0.001-7.247,0-10.871
					C268.299,417.166,268.303,417.162,268.85,417.162z M292.135,451.579c-3.883,0.001-7.766,0-11.65,0c-3.871,0-7.742,0-11.613,0
					c-0.572,0-0.574-0.002-0.574-0.579c-0.001-1.997-0.001-3.994,0.001-5.991c0-0.464,0.023-0.486,0.478-0.487
					c7.803-0.001,15.607-0.001,23.41,0c0.478,0,0.499,0.02,0.499,0.503c0.001,1.997,0.001,3.994,0,5.991
					C292.687,451.574,292.682,451.579,292.135,451.579z"/>
			</g>
			<g>
				<path style="fill:#FFFFFF;" d="M272.966,434.183v1.831h3.165v1.412h-3.165v1.831h3.518v1.412h-5.007v-7.897h5.007v1.412H272.966
					z"/>
				<path style="fill:#FFFFFF;" d="M277.852,440.669v-7.897h2.779c0.375,0,0.726,0.061,1.053,0.182
					c0.327,0.121,0.612,0.292,0.855,0.513c0.243,0.221,0.434,0.483,0.574,0.789c0.14,0.305,0.209,0.642,0.209,1.009
					c0,0.375-0.07,0.715-0.209,1.02c-0.14,0.305-0.331,0.568-0.574,0.789c-0.243,0.221-0.528,0.392-0.855,0.513
					c-0.327,0.121-0.678,0.182-1.053,0.182h-1.29v2.901H277.852z M280.653,436.356c0.389,0,0.684-0.111,0.882-0.331
					c0.199-0.22,0.298-0.474,0.298-0.761c0-0.14-0.024-0.276-0.072-0.408c-0.048-0.132-0.121-0.248-0.221-0.347
					c-0.099-0.099-0.222-0.178-0.37-0.237c-0.147-0.059-0.32-0.089-0.518-0.089h-1.312v2.173H280.653z"/>
				<path style="fill:#FFFFFF;" d="M286.797,440.845c-0.338,0-0.662-0.048-0.971-0.143c-0.309-0.095-0.592-0.239-0.849-0.43
					c-0.257-0.191-0.482-0.425-0.673-0.7c-0.191-0.276-0.342-0.597-0.452-0.965l1.401-0.551c0.103,0.397,0.283,0.726,0.541,0.987
					c0.257,0.261,0.595,0.392,1.015,0.392c0.154,0,0.303-0.02,0.447-0.061c0.143-0.04,0.272-0.099,0.386-0.176
					c0.114-0.077,0.204-0.175,0.27-0.292c0.066-0.118,0.1-0.254,0.1-0.408c0-0.147-0.026-0.279-0.077-0.397
					c-0.051-0.117-0.138-0.227-0.259-0.331c-0.121-0.103-0.279-0.202-0.474-0.298c-0.195-0.095-0.436-0.195-0.723-0.298
					l-0.485-0.176c-0.213-0.073-0.428-0.173-0.645-0.298c-0.217-0.125-0.414-0.276-0.59-0.452c-0.176-0.176-0.322-0.384-0.436-0.623
					c-0.114-0.239-0.171-0.509-0.171-0.81c0-0.309,0.061-0.597,0.182-0.866c0.121-0.268,0.294-0.503,0.518-0.706
					c0.224-0.202,0.493-0.36,0.805-0.474c0.312-0.114,0.66-0.171,1.042-0.171c0.397,0,0.741,0.053,1.031,0.16
					c0.29,0.107,0.537,0.243,0.739,0.408c0.202,0.165,0.365,0.348,0.491,0.546c0.125,0.199,0.217,0.386,0.276,0.563l-1.312,0.551
					c-0.074-0.221-0.208-0.419-0.403-0.596c-0.195-0.176-0.462-0.265-0.799-0.265c-0.324,0-0.592,0.075-0.805,0.226
					c-0.213,0.151-0.32,0.348-0.32,0.59c0,0.235,0.103,0.436,0.309,0.601c0.206,0.165,0.533,0.325,0.982,0.48l0.496,0.165
					c0.316,0.111,0.605,0.237,0.866,0.381c0.261,0.143,0.485,0.314,0.673,0.513c0.187,0.199,0.331,0.425,0.43,0.678
					c0.099,0.254,0.149,0.546,0.149,0.877c0,0.412-0.083,0.767-0.248,1.064c-0.165,0.298-0.377,0.542-0.634,0.734
					c-0.258,0.191-0.548,0.335-0.872,0.43C287.422,440.797,287.105,440.845,286.797,440.845z"/>
			</g>
			<g>
				<path style="fill:#FFFFFF;" d="M321.394,439.168l4.004-4.985h-3.827v-1.412h5.559v1.5l-3.96,4.985h4.004v1.412h-5.779V439.168z"
					/>
				<path style="fill:#FFFFFF;" d="M328.409,432.771h1.489v7.897h-1.489V432.771z"/>
				<path style="fill:#FFFFFF;" d="M331.486,440.669v-7.897h2.779c0.375,0,0.726,0.061,1.053,0.182
					c0.327,0.121,0.612,0.292,0.855,0.513s0.434,0.483,0.574,0.789c0.14,0.305,0.209,0.642,0.209,1.009
					c0,0.375-0.07,0.715-0.209,1.02c-0.14,0.305-0.331,0.568-0.574,0.789c-0.243,0.221-0.528,0.392-0.855,0.513
					c-0.327,0.121-0.678,0.182-1.053,0.182h-1.29v2.901H331.486z M334.288,436.356c0.389,0,0.684-0.111,0.882-0.331
					c0.199-0.22,0.298-0.474,0.298-0.761c0-0.14-0.024-0.276-0.072-0.408c-0.048-0.132-0.121-0.248-0.221-0.347
					c-0.099-0.099-0.222-0.178-0.37-0.237c-0.147-0.059-0.32-0.089-0.518-0.089h-1.312v2.173H334.288z"/>
			</g>
		</g>
		<g style="opacity:0.61;">
			<path style="fill:#FFFFFF;" d="M300.133,433.27h9.067v2.242h-9.067V433.27z M300.133,437.136h9.067v2.243h-9.067V437.136z"/>
		</g>
	</g>
	<g style="opacity:0.61;">
		<path style="fill:#FFFFFF;" d="M156.756,478.878h1.607c1.263,0,2.114,0.812,2.114,1.974c0,1.161-0.851,1.973-2.114,1.973h-1.607
			V478.878z M158.34,482.464c1.049,0,1.725-0.665,1.725-1.612c0-0.947-0.677-1.613-1.725-1.613h-1.167v3.225H158.34z"/>
		<path style="fill:#FFFFFF;" d="M165.139,480.851c0-1.15,0.879-2.007,2.075-2.007c1.184,0,2.069,0.851,2.069,2.007
			c0,1.156-0.885,2.007-2.069,2.007C166.019,482.858,165.139,482.002,165.139,480.851z M168.866,480.851
			c0-0.942-0.705-1.635-1.652-1.635c-0.953,0-1.663,0.693-1.663,1.635c0,0.941,0.71,1.635,1.663,1.635
			C168.162,482.486,168.866,481.793,168.866,480.851z"/>
		<path style="fill:#FFFFFF;" d="M179.596,478.878l-1.331,3.947h-0.44l-1.156-3.366l-1.161,3.366h-0.434l-1.331-3.947h0.429
			l1.139,3.394l1.178-3.394h0.389l1.161,3.411l1.156-3.411H179.596z"/>
		<path style="fill:#FFFFFF;" d="M187.731,478.878v3.947h-0.344l-2.537-3.202v3.202h-0.417v-3.947h0.344l2.543,3.203v-3.203H187.731
			z"/>
		<path style="fill:#FFFFFF;" d="M193.093,478.878h0.417v3.586h2.21v0.361h-2.627V478.878z"/>
		<path style="fill:#FFFFFF;" d="M200.061,480.851c0-1.15,0.879-2.007,2.075-2.007c1.184,0,2.069,0.851,2.069,2.007
			c0,1.156-0.885,2.007-2.069,2.007C200.941,482.858,200.061,482.002,200.061,480.851z M203.788,480.851
			c0-0.942-0.705-1.635-1.652-1.635c-0.953,0-1.663,0.693-1.663,1.635c0,0.941,0.71,1.635,1.663,1.635
			C203.083,482.486,203.788,481.793,203.788,480.851z"/>
		<path style="fill:#FFFFFF;" d="M211.636,481.77h-2.199l-0.474,1.054h-0.434l1.804-3.947h0.412l1.804,3.947h-0.44L211.636,481.77z
			 M211.484,481.432l-0.947-2.12l-0.947,2.12H211.484z"/>
		<path style="fill:#FFFFFF;" d="M217.28,478.878h1.607c1.263,0,2.114,0.812,2.114,1.974c0,1.161-0.851,1.973-2.114,1.973h-1.607
			V478.878z M218.864,482.464c1.049,0,1.725-0.665,1.725-1.612c0-0.947-0.677-1.613-1.725-1.613h-1.167v3.225H218.864z"/>
		<path style="fill:#FFFFFF;" d="M234.041,481.77h-2.199l-0.474,1.054h-0.434l1.804-3.947h0.412l1.804,3.947h-0.44L234.041,481.77z
			 M233.889,481.432l-0.947-2.12l-0.947,2.12H233.889z"/>
		<path style="fill:#FFFFFF;" d="M239.685,478.878h0.417v3.586h2.21v0.361h-2.627V478.878z"/>
		<path style="fill:#FFFFFF;" d="M247.082,478.878h0.417v3.586h2.21v0.361h-2.627V478.878z"/>
		<path style="fill:#FFFFFF;" d="M260.449,479.239v1.551h2.041v0.361h-2.041v1.675h-0.417v-3.947h2.706v0.361H260.449z"/>
		<path style="fill:#FFFFFF;" d="M267.678,478.878h0.417v3.947h-0.417V478.878z"/>
		<path style="fill:#FFFFFF;" d="M273.456,478.878h0.417v3.586h2.21v0.361h-2.627V478.878z"/>
		<path style="fill:#FFFFFF;" d="M283.644,482.464v0.361h-2.791v-3.947h2.706v0.361h-2.289v1.404h2.041v0.355h-2.041v1.466H283.644z
			"/>
		<path style="fill:#FFFFFF;" d="M294.672,479.239v1.551h2.041v0.361h-2.041v1.675h-0.417v-3.947h2.706v0.361H294.672z"/>
		<path style="fill:#FFFFFF;" d="M301.5,480.851c0-1.15,0.879-2.007,2.075-2.007c1.184,0,2.069,0.851,2.069,2.007
			c0,1.156-0.885,2.007-2.069,2.007C302.379,482.858,301.5,482.002,301.5,480.851z M305.226,480.851
			c0-0.942-0.705-1.635-1.652-1.635c-0.953,0-1.663,0.693-1.663,1.635c0,0.941,0.71,1.635,1.663,1.635
			C304.522,482.486,305.226,481.793,305.226,480.851z"/>
		<path style="fill:#FFFFFF;" d="M313.351,482.825l-0.902-1.269c-0.102,0.011-0.203,0.017-0.316,0.017h-1.06v1.252h-0.417v-3.947
			h1.477c1.004,0,1.613,0.507,1.613,1.353c0,0.62-0.327,1.054-0.902,1.24l0.964,1.353H313.351z M313.328,480.231
			c0-0.632-0.417-0.992-1.207-0.992h-1.048v1.979h1.048C312.911,481.218,313.328,480.851,313.328,480.231z"/>
		<path style="fill:#FFFFFF;" d="M322.907,478.878v3.947h-0.4v-3.158l-1.551,2.656h-0.197l-1.551-2.639v3.14h-0.4v-3.947h0.344
			l1.714,2.926l1.697-2.926H322.907z"/>
		<path style="fill:#FFFFFF;" d="M330.744,481.77h-2.199l-0.473,1.054h-0.434l1.804-3.947h0.411l1.804,3.947h-0.44L330.744,481.77z
			 M330.592,481.432l-0.947-2.12l-0.947,2.12H330.592z"/>
		<path style="fill:#FFFFFF;" d="M336.957,479.239h-1.387v-0.361h3.192v0.361h-1.387v3.586h-0.417V479.239z"/>
		<path style="fill:#FFFFFF;" d="M343.063,482.346l0.164-0.321c0.282,0.276,0.784,0.479,1.302,0.479c0.739,0,1.06-0.31,1.06-0.699
			c0-1.083-2.43-0.417-2.43-1.877c0-0.581,0.451-1.083,1.455-1.083c0.446,0,0.908,0.13,1.224,0.35l-0.141,0.333
			c-0.338-0.22-0.733-0.327-1.083-0.327c-0.722,0-1.043,0.321-1.043,0.716c0,1.083,2.43,0.429,2.43,1.866
			c0,0.581-0.462,1.077-1.472,1.077C343.937,482.858,343.356,482.65,343.063,482.346z"/>
	</g>
</g>
<g>
</g>
<g id="Layer_x0020_1">
	<g id="_1702493717824">
		<path style="fill-rule:evenodd;clip-rule:evenodd;fill:#FF0000;" d="M451.41,201.814c-1.225-1.97-2.978-8.455-4.107-11.169
			c-7.854-18.879-15.373-31.61-29.016-47.246c-3.026-3.459-15.204-14.988-15.348-15.228c3.123,1.297,13.403,11.409,16.237,14.34
			c5.741,5.957,8.791,10.376,13.475,17.006c4.684,6.629,7.83,11.89,11.265,19.24c1.105,2.426,8.647,21.786,7.566,22.939
			L451.41,201.814z M445.43,161.269c-1.994-1.489-19.216-31.346-61.418-56.782c-4.131-2.522-7.95-5.068-12.25-7.446
			c-2.546-1.417-10.569-5.693-12.298-7.326c7.11,1.994,19.792,9.248,26.59,12.995c8.719,4.804,15.493,10.953,22.963,16.429
			C415.862,124.159,444.661,154.015,445.43,161.269z M328.43,82.052c-1.898-0.264-14.196-3.891-15.012-4.9
			c5.885-0.24,29.808,5.02,33.892,7.902l-18.879-3.891C327.758,82.725,328.959,80.971,328.43,82.052z M290.792,84.839
			c9.896-1.898,14.796-1.009,24.572,0.384c3.435,0.48,19.672,4.035,21.93,5.284c-2.402,0.12-8.311-1.489-11.049-1.994
			c-3.747-0.697-7.542-1.081-11.313-1.681C307.485,85.631,298.406,85.271,290.792,84.839z M243.761,73.237l16.309-2.618
			c3.291-0.552,14.508-1.922,17.054-0.649c-1.057,0.504-9.344,0.745-11.265,0.961c-3.555,0.384-7.086,0.769-10.617,1.249
			c-3.195,0.456-7.014,1.081-10.112,1.777c-1.657,0.384-8.503,2.33-9.512,1.898c-11.289,4.444-21.065,7.014-31.778,13.427
			c-9.656,5.741-17.174,12.13-25.845,19.048c-8.143,6.485-15.853,14.316-23.179,21.738c-7.926,7.999-14.7,17.246-16.357,28.679
			c2.114-2.09,4.251-5.669,6.101-8.167c5.428-7.326,13.667-15.997,20.056-22.362c9.872-9.848,19.648-17.654,31.466-25.076
			c13.139-8.239,24.5-12.178,38.551-18.015c11.986-4.996,33.964-10.064,46.814-9.896c-1.585,1.057-14.436,2.594-17.558,3.099
			c-6.197,0.985-10.713,2.162-16.477,4.059c0.937,0.721,0.264,0.144,1.417,0.552c-9.224,2.378-31.922,10.953-38.816,16.958
			c2.33-0.625,6.101-2.714,8.407-3.819c7.999-3.843,17.606-7.254,26.085-9.656c8.551-2.45,33.459-7.878,41.266-5.669
			c-1.345,4.155-23.948,4.564-28.751,6.389c-0.456,0.576-10.905,3.147-12.706,3.795c-3.555,1.273-8.263,3.147-11.505,4.756
			c0.288,0.528,0.336,0.096-0.288,0.6c-0.144,0.12-0.552,0.312-0.721,0.384c-1.153,0.6-3.867,1.753-4.444,2.498
			c-0.865,0.024-0.432-0.12-0.576,0.288l-0.552,0.24l0.552-0.24l0.576-0.288c2.186-0.288,6.87-2.234,9.224-2.954
			c1.825-0.552,8.503-1.994,9.56-2.618c-0.312-0.48-0.456-0.072,0.312-0.456l3.243-0.961c8.383-2.33,25.917-5.332,33.099-4.275
			c-1.297-0.24-14.484,1.585-15.733,2.306c2.018-0.024,6.846-0.649,8.431,0.264c9.344-1.898,24.02-1.225,33.916-1.417
			c-1.922-1.177-5.621-0.168-7.422-1.417c6.125-0.264,32.522,2.642,36.702,5.524l-12.562-1.777c8.863,2.858,17.774,4.684,26.71,7.95
			c13.571,4.972,27.526,12.274,39.368,20.777c2.354,1.705,2.498,2.354,4.348,4.251c5.765,5.957,10.112,8.527,17.486,16.91
			c5.452,6.221,10.665,12.394,15.517,19.12c5.404,7.494,4.011,7.038,6.125,10.449c2.354,3.819,4.588,6.101,6.774,10.497
			c3.507,7.11,7.398,17.222,9.536,24.836c0.625,2.258,0.985,4.396,2.09,6.485c2.378,4.54,4.732,16.333,4.492,20.993
			c-1.153,0.048-1.441-0.36-3.026,0c-1.225,0.288-1.537,0.769-2.642,1.033c-1.081-1.201-4.131-9.079-4.972-11.145
			c-1.609-3.987-3.243-7.254-5.02-11.049c-0.576,1.009,3.771,11.986,4.155,14.388c-0.793,1.297-1.369,1.201-2.33,3.507
			c-2.642,6.341-3.123,2.162-4.54,1.729c-0.889,3.939,0.937,30.817,0.961,39.128c0,2.81-0.649,10.569-0.312,12.61
			c1.513-1.633,1.898-3.651,4.059-3.483c0.24,1.85,0.024,5.02-0.865,6.677c-1.585,3.002-3.555,1.273-4.708,1.994
			c-0.552,1.249,0.913,4.011,1.753,5.092c1.249,1.609,2.282,2.21,3.867,3.339c3.699,2.642-0.24,6.197-2.282,9.296
			c-1.633,2.522-3.891,6.87-5.717,8.959c-1.033,1.177-7.23,6.822-7.35,7.158l3.819,1.585c-1.465,2.618-2.834,1.081-4.059,8.335
			c-0.264,1.585-2.378,8.119-4.396,7.158c-0.745-0.985-0.216-3.002-0.144-4.348c-1.922,1.033,0.12,1.057-5.092,3.915
			c-4.852,2.642-2.882,3.123-4.66,4.083l-0.961-6.389c-1.489,0.649-3.771,6.245-6.317,7.878c-1.585,1.033-1.513-0.288-2.81-0.649
			c-1.97,6.918-5.549,12.202-10.545,17.198c-1.994,1.994-12.226,13.547-13.715,14.172l-1.609-3.026
			c-0.769,0.697-1.369,2.162-2.21,3.195c-5.02,6.077-18.039,10.4-20.128,16.718c-2.09-0.6-0.985-1.826-4.66,2.57
			c-1.177,1.393-2.666,2.834-3.891,4.155c-1.249,1.345-2.45,3.267-4.612,3.411c-3.291,0.216-3.074-1.898-4.66-3.363
			c-1.441,0.288-5.38,2.162-6.99,2.81c-9.44,3.747-14.027,4.011-23.923,4.396c-3.002,7.542-12.586,7.158-19.264,7.518
			c-8.575,0.504-17.534,0.072-26.085-0.721c-35.333-3.243-66.798-17.582-94.037-39.848c-5.044-4.131-9.464-8.935-16.045-10.665
			c0.889,2.402,15.997,12.61,15.997,14.868c-4.732-0.456-30-23.107-35.093-29.496c-2.402-3.026-7.566-9.007-10.641-11.025
			l-0.24-0.312l-0.216-0.216l0.216,0.216l0.24,0.312c1.801,3.867,5.092,5.861,5.645,10.449c0.6,5.236,0.456,9.007,1.705,14.268
			l1.153-6.461c2.906,0.456,5.621,5.765,6.822,8.287c2.834,5.885,6.149,5.356,7.902,7.71l-6.197,1.417
			c0.264,0.336,3.05,1.994,4.035,2.882c4.035,3.723,6.293,10.617,7.902,12.274c1.129-1.705-0.168-4.708,1.657-6.629
			c1.946,0,2.714,2.498,3.555,3.987c1.753,3.147,3.747,5.741,5.693,9.296c0.697,1.273,1.777,4.203,2.498,4.996l0.312-2.57
			c0.576,0.072,3.939,3.219,4.972,3.915c1.801,1.249,3.507,2.426,5.404,3.747c10.857,7.638,6.99,5.741,4.588,8.575
			c2.162,1.201,6.341-0.576,9.512,2.21c-1.465,1.273-4.612,1.273-5.549,2.786c2.306,1.681,23.251,5.789,21.498,10.352
			c-1.922,1.729-8.719-0.048-11.097,0.264c4.612,2.426,17.078,6.677,21.618,2.762c2.498-2.162,3.099-5.717,6.942-6.918
			c2.546-0.769,9.56-0.769,11.842,0.384c-0.649,1.273-2.978,1.729-4.131,2.642c1.633,0.769,8.071-0.913,10.352-1.417
			c2.09-0.456,5.597,3.219,7.638,4.324c3.867-1.201,4.444-2.762,9.68-3.026c3.915-0.192,8.383-0.144,12.274,0.312
			c6.557,0.769,17.438,1.201,23.851,0.048c4.372-0.793,5.645-1.609,9.536-2.93c4.732-1.585,12.754,1.393,22.963-0.865
			c1.85-0.408,8.311-2.018,9.632-2.882c-0.937-1.081-3.627-0.865-4.9-2.114c2.21-0.432,5.188-0.36,7.542-0.721
			c2.402-0.36,4.708-0.745,7.086-1.201c4.396-0.865,9.151-1.777,13.379-2.978c6.125-1.705,27.07-4.348,28.007-5.044
			c-1.585-0.576-2.57-0.12-3.459-1.249c0.192-0.552,3.291-2.762,4.227-3.795c11.746-13.163,16.766-9.32,24.716-14.364
			c4.708-3.002,4.732-4.612,7.446-7.758c-2.066,0.312-7.806,6.557-12.274,7.038c0.336-0.937,6.077-5.284,7.398-6.701
			c2.858-3.147,3.507-5.236,5.164-8.983c1.441-3.291,9.079-15.084,12.202-15.901l0.312,1.513
			c6.245-10.376,12.538-21.329,18.015-32.138c6.365-12.562,9.296-23.323,13.739-36.438c6.966-20.537,8.983-45.301,8.143-66.822
			c-0.288-7.734-1.393-15.421-1.97-23.179l-1.249,1.657c-0.552-8.431-2.018-13.667-5.164-21.281
			c-1.033-2.522-7.134-17.078-8.239-18.063l0.384,5.068c-2.258-0.841-9.68-15.084-12.947-19.408
			c-1.489-1.994-1.417-1.201-1.081-3.963c0.36-2.786,0.6-2.138,3.147-2.186c-0.336-0.889-3.651-3.843-4.564-4.66
			c-3.723-3.267-2.69-1.609-6.774-2.402c-3.363-0.649-3.675-1.801-5.02-4.396c-3.05-5.789-8.119-10.593-12.778-14.94
			c-3.026-2.81-9.464-6.774-9.103-9.079c2.018-0.817,4.227,1.081,6.221,1.441c-4.107-4.035-13.355-5.212-19.072-8.671
			c-5.717-3.435-11.962-6.461-17.943-9.488c-6.269-3.195-11.986-6.317-18.591-8.839c-21.425-8.191-44.676-14.051-67.543-14.844
			C278.422,66.175,255.795,67.881,243.761,73.237z"/>
		<path style="fill-rule:evenodd;clip-rule:evenodd;" d="M88.739,231.838c2.21-0.504,11.625-0.096,14.58-0.096
			c20.753,0,20.921-1.729,21.017,8.743c0.024,3.05,1.009,10.977-3.099,11.746c-2.234,0.432-25.653,0.192-29.832,0.168
			c-6.629-0.048-6.005-3.147-6.005-8.863C85.4,239.861,84.055,232.871,88.739,231.838z M139.276,231.886
			c3.074-0.793,24.836-0.168,29.76-0.144c6.533,0,6.173,3.291,6.197,9.007c0.024,3.411,0.841,10.593-3.555,11.481
			c-2.138,0.432-26.133,0.24-30.097,0.168c-6.293-0.144-6.173-3.795-6.149-9.151C135.433,239.332,134.689,233.063,139.276,231.886z
			 M87.682,207.242c2.618-0.937,24.884-0.384,29.496-0.384c7.014,0,7.11,1.033,7.158,7.83c0.048,3.026,0.985,10.857-2.498,12.13
			c-2.09,0.793-25.413,0.36-29.616,0.36c-6.894,0-7.302-0.937-7.302-7.782c0-2.378-0.12-5.14,0.048-7.494
			C85.136,209.404,85.4,208.059,87.682,207.242z M138.964,207.242c2.858-0.913,24.788-0.432,29.496-0.384
			c6.725,0.048,6.677,2.33,6.774,8.383c0.216,14.075-0.552,11.938-18.135,11.938c-22.987,0-22.29,2.402-21.329-15.541
			C135.914,208.756,136.418,208.059,138.964,207.242z M124.889,192.879c-0.408-1.033,0.985-3.819,1.561-4.972
			c0.721-1.441,2.834-1.561,4.179-2.45c1.729-1.129,1.321-3.411-0.504-4.203c-1.105-0.48-29.088-2.594-31.129-2.714
			c-0.312,2.858-3.291,12.322-4.948,14.484l-29.952,0.072l0.072,75.277l28.535-0.024c2.978,6.461-3.747,27.647-6.317,34.732
			c-3.483,9.632-8.935,18.927-15.06,27.094C59.82,345.475,42.838,359.839,26,369.278l1.369,4.035
			c31.418-13.691,55.629-36.053,68.336-67.807c2.714-6.798,6.677-22.266,8.647-25.461c1.345-2.162,4.708-3.747,5.068-6.101
			c-1.369-0.985-5.909-4.203-6.413-5.645l15.493,0.024c1.609,5.765-1.177,40.665,1.153,48.976
			c4.251,15.108,24.116,11.866,38.287,11.866c15.805,0,31.394,2.954,38.071-12.082c6.149-13.787,3.002-12.034-1.729-16.213
			c-2.642-2.33-2.81-6.101-3.099-9.392c-0.096-0.985-1.297-10.376-2.114-10.376c-1.537,0.384-0.841,16.549-6.461,23.395
			c-3.05,3.723-6.701,3.243-11.097,3.507c-6.798,0.432-20.633,0.721-26.518-2.738c-3.819-2.234-3.819-6.341-4.396-10.304
			c-0.721-4.804,0.624-22.242,2.618-26.494c6.485-0.793,46.43,0.697,48.183-0.312c1.081-1.561-0.288-51.57,0.36-58.752
			c1.705,0.625,4.804,7.326,5.717,9.272c0.745,1.561,1.465,3.963,3.411,4.155c5.549,0.552,7.422-8.359,1.345-13.091
			c-3.963-3.075-6.293-2.69-10.521-4.299l-0.096-12.418L124.889,192.879z"/>
		<path style="fill-rule:evenodd;clip-rule:evenodd;" d="M314.091,196.289c6.533,0.697,44.22-0.745,46.262,0.36
			c0.432,1.273-0.937,12.682-1.297,14.868c-0.576,3.747-1.081,10.593-3.507,13.331c-1.249-0.024-16.718-7.518-19.168-8.695
			c-3.026-1.441-18.831-8.167-20.969-6.701c-0.072,1.225,12.706,9.272,14.652,10.809c4.948,3.843,9.848,7.278,14.628,11.433
			c7.134,6.221,8.983,7.206,6.005,16.91c-5.597,18.375-16.117,34.948-29.712,48.471c-4.396,4.348-9.272,8.143-14.196,11.866
			c-2.306,1.705-5.332,3.795-7.83,5.188c-1.345,0.769-7.542,3.819-7.374,5.14c2.426,3.075,22.626-8.023,26.037-10.04
			c19.744-11.698,34.348-30.265,43.115-51.402c0.697-1.657,1.609-5.693,4.131-4.516c1.273,0.6,3.363,4.348,4.059,5.693
			c5.452,10.521,7.806,24.452,16.814,19.648c8.935-4.756,1.681-20.969-2.594-26.902c-2.666-3.723-5.332-7.086-8.455-10.4
			c-3.627-3.867-6.798-6.221-5.885-11.986c0.841-5.452,1.705-10.905,2.546-16.357c0.817-5.236,1.345-11.625,2.474-16.598
			c3.939-0.144,34.636-0.384,35.885,0.192c0.528,2.042,0,30.097,0.024,34.997c0,11.385,0.072,23.587-0.745,34.924
			c-0.625,8.911-1.153,22.386-4.876,30.505c-2.33,5.068-6.101,6.245-11.385,6.317c-3.867,0.048-12.25-0.36-15.685-2.018
			c-0.264,1.081,5.092,25.341,5.933,27.839c12.034,0.192,26.902,1.081,36.462-7.638c9.127-8.335,10.424-20.969,11.746-32.619
			c3.171-27.526,3.843-56.758,4.059-84.477c0.048-7.206,0.216-14.436,0.192-21.642c-0.024-1.874,0.504-9.224-1.201-9.824
			c-0.649-0.216-9.488-0.048-11.001-0.048h-99.537c-2.066-0.024-9.248-0.937-9.776,1.297
			C313.586,175.657,313.947,193.623,314.091,196.289z"/>
		<path style="fill-rule:evenodd;clip-rule:evenodd;" d="M122.415,336.804l0.216,0.216l0.24,0.312
			c3.075,2.018,8.239,7.999,10.641,11.025c5.092,6.389,30.361,29.04,35.093,29.496c0-2.258-15.108-12.466-15.997-14.868
			c6.581,1.729,11.001,6.533,16.045,10.665c27.238,22.266,58.704,36.606,94.037,39.848c8.551,0.793,17.51,1.225,26.085,0.721
			c6.677-0.36,16.261,0.024,19.264-7.518c9.896-0.384,14.484-0.649,23.923-4.396c1.609-0.649,5.549-2.522,6.99-2.81
			c1.585,1.465,1.369,3.579,4.66,3.363c2.162-0.144,3.363-2.066,4.612-3.411c1.225-1.321,2.714-2.762,3.891-4.155
			c3.675-4.396,2.57-3.171,4.66-2.57c2.09-6.317,15.108-10.641,20.128-16.718c0.841-1.033,1.441-2.498,2.21-3.195l1.609,3.026
			c1.489-0.625,11.722-12.178,13.715-14.172c4.996-4.996,8.575-10.28,10.545-17.198c1.297,0.36,1.225,1.681,2.81,0.649
			c2.546-1.633,4.828-7.23,6.317-7.878l0.961,6.389c1.777-0.961-0.192-1.441,4.66-4.083c5.212-2.858,3.171-2.882,5.092-3.915
			c-0.072,1.345-0.6,3.363,0.144,4.348c2.018,0.961,4.131-5.573,4.396-7.158c1.225-7.254,2.594-5.717,4.059-8.335l-3.819-1.585
			c0.12-0.336,6.317-5.981,7.35-7.158c1.826-2.09,4.083-6.437,5.717-8.959c2.042-3.099,5.981-6.653,2.282-9.296
			c-1.585-1.129-2.618-1.729-3.867-3.339c-0.841-1.081-2.306-3.843-1.753-5.092c1.153-0.721,3.123,1.009,4.708-1.994
			c0.889-1.657,1.105-4.828,0.865-6.677c-2.162-0.168-2.546,1.85-4.059,3.483c-0.336-2.042,0.312-9.8,0.312-12.61
			c-0.024-8.311-1.85-35.189-0.961-39.128c1.417,0.432,1.898,4.612,4.54-1.729c0.961-2.306,1.537-2.21,2.33-3.507
			c-0.384-2.402-4.732-13.379-4.155-14.388c1.777,3.795,3.411,7.062,5.02,11.049c0.841,2.066,3.891,9.944,4.972,11.145
			c1.105-0.264,1.417-0.745,2.642-1.033c1.585-0.36,1.874,0.048,3.026,0c0.24-4.66-2.114-16.453-4.492-20.993
			c-1.105-2.09-1.465-4.227-2.09-6.485c-2.138-7.614-6.029-17.726-9.536-24.836c-2.186-4.396-4.42-6.677-6.774-10.497
			c-2.114-3.411-0.721-2.954-6.125-10.449c-4.852-6.725-10.064-12.898-15.517-19.12c-7.374-8.383-11.722-10.953-17.486-16.91
			c-1.849-1.898-1.994-2.546-4.348-4.251c-11.842-8.503-25.797-15.805-39.368-20.777c-8.935-3.267-17.847-5.092-26.71-7.95
			l12.562,1.777c-4.179-2.882-30.577-5.789-36.702-5.524c1.801,1.249,5.5,0.24,7.422,1.417c-9.896,0.192-24.572-0.48-33.916,1.417
			c-0.384,2.45-7.614,4.107-9.728,4.924l6.629-0.216c-1.177,0.504-5.188,0.817-6.774,1.057c-0.649,0.096-6.293,1.153-6.341,1.177
			c1.97,0.649,14.003-1.825,17.078-0.552c-0.384,0.192-7.974,0.865-9.464,1.129c-11.241,1.874-14.22,2.306-25.701,5.885
			c2.666,0.024,9.608-1.898,12.778-2.474c14.027-2.546,30.169-3.915,44.316-2.642c17.534,1.561,34.972,5.597,51.018,12.971
			c6.942,3.171,14.364,6.894,20.681,11.193c2.33,1.585,7.71,4.852,9.224,6.894c1.681,2.282,5.933,5.428,8.287,7.782
			c9.944,9.968,14.099,14.676,22.362,25.581c1.105,1.441,5.356,8.647,6.822,8.359c0.096-2.522-12.178-17.75-14.484-20.657
			c-5.645-7.11-15.757-15.108-17.654-17.558c8.407,6.077,11.842,9.68,18.591,17.462c5.765,6.677,9.848,14.724,15.565,20.993
			l17.222,0.048c2.09,6.053-0.913,93.58-2.498,104.533c-3.074,21.257,0.072,46.982-28.223,52.795
			c-5.789,1.201-4.828-0.168-9.32,4.275c-3.026,2.978-4.203,5.693-7.782,2.522c-1.417,3.243-1.657,5.525-3.963,8.743
			c-2.882,4.011-16.886,19.6-18.567,20.513l-1.585-2.786c-0.793,0.408-1.273,1.994-1.994,2.81
			c-5.452,6.221-17.294,9.992-18.687,15.637l-1.946-0.769c-1.489,2.33-4.588,5.26-6.509,7.326c-3.579,3.867-5.236,4.203-8.263-0.384
			c-2.858,1.633-9.272,3.771-12.826,4.852c-6.149,1.85-9.608,1.657-15.829,2.042c-1.994,3.675-6.269,6.389-10.521,6.533
			c-18.039,0.504-28.487,1.249-47.415-2.522c-18.231-3.651-33.051-9.728-49.12-18.807c-6.365-3.603-33.964-22.434-40.617-27.31
			c-6.485-4.78-12.778-9.944-18.615-15.493c-2.906-2.762-6.029-5.284-8.911-7.999c-2.018-1.874-6.918-6.894-8.743-8.191
			C114.2,322.945,120.685,333.705,122.415,336.804z M291.824,97.161l-2.594-0.408c2.33-0.769,17.847,0.985,21.113,1.513
			c3.267,0.528,6.341,1.129,9.56,1.825c1.345,0.288,8.335,1.946,8.887,2.33c-0.841,0.36-16.598-2.714-19.096-3.123l-15.3-1.946
			C293.458,97.161,292.785,97.161,291.824,97.161z M284.162,94.927c2.018-0.793,16.622,0.504,19.864,0.745
			c3.099,0.216,6.437,0.937,9.464,1.393l6.773,1.321c0.168,0.048,0.841,0.192,1.057,0.264l0.432,0.192
			c0.072,0.024,0.192,0.192,0.216,0.12c0.048-0.048,0.168,0.096,0.216,0.144c-2.186,0.024-7.182-0.745-9.512-1.153l-18.903-2.258
			C291.849,95.599,285.507,95.431,284.162,94.927z"/>
		<path style="fill-rule:evenodd;clip-rule:evenodd;" d="M237.925,222.519c-0.36-1.129-0.072-3.675-0.096-5.068
			c-0.024-2.642-0.288-2.69,2.426-2.642h21.113c2.546,0,1.561,0.793,1.777,3.219c0.144,1.801,0.576,2.642,0.336,4.636
			c-1.777-0.865-5.02-4.972-7.975-6.197c-2.018,1.225-4.011,5.597-5.909,6.173C248.157,223.071,238.933,223.071,237.925,222.519z
			 M263.698,198.235c-1.441,1.081-37.543-0.625-43.043,0.408c-0.649,6.701-0.096,16.501-0.096,23.539
			c0,14.412,0.216,29.472-3.603,43.499c-1.874,6.798-4.131,10.977-6.701,17.222c0.913,0.745,6.701,2.786,8.407,3.579
			c1.801,0.865,6.725,3.987,8.167,4.227c5.717-13.115,8.671-23.179,9.896-37.735c0.24,0.048,6.077,3.627,6.822-5.597
			c0.168-2.042-1.297-10.136-3.002-11.025c-0.865,0.985-0.6,8.575-3.363,10.905c-0.096-3.243,0.48-7.014,0.552-10.4
			c0.024-1.874-0.48-9.848,0.48-10.665c1.009-0.865,21.93-0.168,25.413-0.528l1.201,12.538c-1.801-0.24-3.675-3.603-5.981-3.795
			c-1.729,2.186-2.738,9.728-6.125,9.68c-0.961-2.21-0.312-9.728,0.024-10.545c0.48-1.129,1.393-1.057,1.705-2.498
			c-1.345-1.777-7.158-2.45-9.32-2.282c-0.072,1.801,0.865,4.444,0.961,6.701c0.336,7.374,0.961,14.099-0.841,21.666
			c-2.786,11.77-10.424,17.102-11.385,19.432c3.315-0.528,8.383-5.476,10.256-7.854c1.801-2.306,6.317-10.208,7.23-10.905
			c3.579,0.504,3.507,6.87,5.5,9.272c4.708,0.865,5.837-5.068,3.555-7.662c-3.939-4.468-11.529-0.769-8.167-10.521
			c0.673-1.946,1.97-2.306,3.675-3.315c2.93-1.753,5.597-3.915,8.983-4.732c0.528,0.985,1.97,11.361,2.426,13.619
			c1.633,7.902,2.042,5.068-2.642,11.241c-5.693,7.47-16.622,14.676-17.15,15.517c0.312,0.384,6.293,3.939,7.422,4.708
			c2.498,1.705,4.612,3.747,6.942,5.428c2.402-0.625,7.854-6.461,9.632-8.263c5.044-5.14,5.26-6.725,8.095-9.896
			c0.697,0.336,5.813,6.846,6.942,8.023c1.85,1.97,5.861,5.5,8.287,6.701c4.011,1.994,8.815,1.753,7.422-4.107
			c-0.408-1.729-2.57-11.169-2.954-11.986c-1.826,0.961-2.378,9.704-8.143,3.411c-1.489-1.657-5.669-7.302-6.629-9.272
			c0.24-0.528,3.171-5.092,4.732-8.359c2.81-5.909,5.693-12.658,7.782-18.855c3.795-11.313,1.369-9.464,6.221-11.073
			c0.192-2.978-2.618-3.075-7.782-4.708c-1.994-0.649-7.806-2.93-9.512-3.002c-1.297,3.795-3.291,15.733-5.236,18.255
			c-0.793-1.609-1.201-20.561-0.985-23.323l21.474-0.096c0.552-1.081,0.48-14.244,0.216-16.069
			c-1.465-0.576-4.732,0.168-5.597-0.504c-0.24-0.24,0.12-5.813-4.948-9.512c-2.306-1.681-8.575-5.116-11.121-3.411
			c0.456,0.793,1.97,1.922,2.69,2.69c1.057,1.177,1.345,1.825,2.186,3.074c0.889,1.297,3.747,6.173,2.906,7.23
			c-1.129,0.528-14.868,0.48-15.517-0.096c-1.105-1.033-0.504-8.839,0.985-10.617c1.513-1.777,1.729-2.594-0.625-3.675
			c-1.561-0.721-3.267-1.129-4.9-1.513c-7.206-1.633-5.236-1.129-4.348,4.42C263.457,188.507,264.37,197.466,263.698,198.235z"/>
		<path style="fill-rule:evenodd;clip-rule:evenodd;" d="M317.597,241.254c3.795,5.428-7.638,31.466-13.547,23.587
			C297.397,255.93,308.566,240.365,317.597,241.254z M323.819,275.842c6.846-0.625,14.58-8.551,16.838-14.82
			c2.858-7.926,1.297-18.159-5.861-23.323c-14.628-10.593-36.125-1.513-38.575,16.333c-1.393,10.232,6.317,19.96,12.442,18.927
			c6.197-1.033,10.737-14.748,12.01-20.008c2.21-9.127,0.288-12.37,4.275-11.025c9.944,3.387,9.752,14.34,4.54,20.681
			c-3.002,3.627-6.221,4.155-10.4,5.621L323.819,275.842z"/>
		<path style="fill-rule:evenodd;clip-rule:evenodd;" d="M138.46,158.747l-2.522,10.4c3.819-4.299,7.278-9.8,10.809-14.436
			c18.543-24.38,42.395-44.508,71.242-55.725c12.274-4.78,25.821-10.593,39.032-11.842c4.804-1.825,27.406-2.234,28.751-6.389
			c-7.806-2.21-32.715,3.219-41.266,5.669c-8.479,2.402-18.087,5.813-26.085,9.656c-2.306,1.105-6.077,3.195-8.407,3.819
			c6.894-6.005,29.592-14.58,38.816-16.958c-1.153-0.408-0.48,0.168-1.417-0.552c5.765-1.898,10.28-3.075,16.477-4.059
			c3.123-0.504,15.973-2.042,17.558-3.099c-12.85-0.168-34.828,4.9-46.814,9.896c-14.051,5.837-25.413,9.776-38.551,18.015
			c-11.818,7.422-21.594,15.228-31.466,25.076c-6.389,6.365-14.628,15.036-20.056,22.362
			C142.711,153.078,140.573,156.657,138.46,158.747z"/>
		<path style="fill-rule:evenodd;clip-rule:evenodd;" d="M187.003,274.521c1.609,1.994,8.359,1.057,10.881,8.335
			c1.393,4.011,0.552,13.139,4.275,15.132c6.101,3.267,8.671-4.42,6.581-9.92c-2.978-7.878-3.075-7.662-2.066-16.309
			c1.249-10.521,3.819-22.29,5.789-32.787c0.961-5.284,6.029-29.688,5.549-33.051c-2.282,0.432-5.549,15.781-6.245,18.543
			c-1.657,6.629-3.411,13.283-5.02,19.912c-1.489,6.245-3.363,13.307-5.621,19.312c-0.817,2.162-2.714,6.677-4.203,8.311
			C194.329,274.905,190.03,273.728,187.003,274.521z"/>
		<path style="fill-rule:evenodd;clip-rule:evenodd;" d="M157.795,294.313c0.072-2.186,7.782-14.34,9.752-15.397
			c0.096-0.072,8.167-2.21,0.552-5.645c-2.042-0.937-6.701-3.603-8.743-3.387c-0.24,1.753,0.048,3.123-0.312,5.044
			c-0.649,3.507-3.243,18.183-5.765,19.408c-1.922,0.961-6.942-1.009-8.671-0.408c-1.249,1.826,1.297,10.232,3.339,11.313
			c1.417-0.192,1.705-1.273,2.738-2.162c1.441-1.249,9.632-2.738,11.746-3.219c1.633-0.36,6.966-1.657,8.287-1.657
			c3.195-0.024,1.345,4.155,4.059,5.837c3.075,1.898,9.704-2.786,5.308-10.881c-1.705-3.147-7.71-8.215-11.385-8.335
			c-0.312,3.002,3.339,5.813,1.85,9.32C168.484,295.49,159.669,295.802,157.795,294.313z"/>
		<path style="fill-rule:evenodd;clip-rule:evenodd;" d="M445.43,161.269c-0.769-7.254-29.568-37.11-36.414-42.13
			c-7.47-5.476-14.244-11.625-22.963-16.429c-6.798-3.747-19.48-11.001-26.59-12.995c1.729,1.633,9.752,5.909,12.298,7.326
			c4.299,2.378,8.119,4.924,12.25,7.446C426.214,129.923,443.436,159.78,445.43,161.269z"/>
		<path style="fill-rule:evenodd;clip-rule:evenodd;" d="M292.833,146.161c-2.618,2.354-0.817,3.891,0.024,6.149
			c-3.483,2.066-5.068,0.745-6.437,0.961c-0.625,1.777,1.489,2.834,3.002,3.099c3.243,0.528,3.291-1.009,5.597-1.657
			c2.162,3.387,4.804,7.302,6.005,11.145c0.336,1.105,1.057,3.771,2.786,2.066c2.258-2.186-0.673-6.533-2.09-8.311
			c-1.441-1.801-4.876-4.588-5.26-6.581c2.354-1.369,10.857-8.167,13.499-3.771c0.697,2.186-2.066,4.011-3.867,4.564
			c-2.282,0.721-7.302,0.192-7.758,0.432c7.662,5.068,18.255-0.312,15.276-5.14c-1.753-2.81-7.47-2.306-10.112-1.489
			c-1.417,0.432-8.263,3.867-8.863,3.579c-1.729-1.297-0.432-3.963,1.729-4.444c2.474-0.552,3.651,2.066,5.717,0.264
			c2.306-3.795-3.555-4.708-6.173-4.42c0.408,0.336,3.555,1.201,1.946,2.93C296.893,146.569,294.178,145.92,292.833,146.161z"/>
		<path style="fill-rule:evenodd;clip-rule:evenodd;" d="M199.782,160.38c-0.264-1.729,0.144-2.018,0.985-3.387
			c0.841,0.312,1.561,1.321,1.922,2.258C201.823,160.404,201.271,161.269,199.782,160.38z M202.808,154.808
			c0.793-1.153,2.498-2.642,3.867-2.834c-0.288,1.657-1.465,2.93-2.066,4.516C203.433,156.225,203.192,155.961,202.808,154.808z
			 M205.33,146.089c1.201,1.129,3.195-0.024,2.282,3.531l-5.525,3.939c-1.729-2.33-0.649-6.822-2.57-8.143
			c-0.408,0.889,0.072,5.212,0.216,6.605c0.384,4.059,1.633,2.354-1.393,5.765c-2.954,3.387,1.705,8.983,6.149,2.882
			c1.249,0.24,2.138,0.745,3.411,0.024c0.937-1.441,0.144-2.354-1.153-3.05l3.531-7.566c5.525-0.384,8.119,4.42,5.116,8.959
			c-2.45,3.723-6.053,4.78-9.752,6.774c4.492,0.6,11.553-2.906,13.739-6.389c3.603-5.717-2.762-10.833-8.695-10.545
			C210.374,145.704,208.02,144.191,205.33,146.089z"/>
		<path style="fill-rule:evenodd;clip-rule:evenodd;" d="M195.938,177.026c0,1.345,3.243,3.267,4.396,4.42
			c1.657,1.657,2.858,3.002,4.275,4.852c2.21,2.834,4.78,10.977,9.416,5.741c3.387-3.843,0.769-9.512-2.978-11.89
			C207.972,178.203,199.253,175.969,195.938,177.026z"/>
		<path style="fill-rule:evenodd;clip-rule:evenodd;" d="M169.901,143.711c1.297,0.576,1.489-0.288,2.618,1.225
			c0.697,0.889,1.585,1.609,1.297,2.522c-1.946,0.456-2.834,0-4.564-0.384c0.048,1.441,0.937,2.258,2.138,2.858
			c2.114,1.057,2.57,0.048,4.564,0.072l1.345,2.138c-1.225,0.697-3.05,0.889-4.396,0.889c-2.81,0.024-1.946-0.072-4.059-0.913
			c-0.408,2.426,1.633,3.363,3.795,3.531c2.714,0.24,3.939-1.369,6.173-1.537c0.456,1.249,1.225,1.946,1.297,3.195
			c-2.306,1.177-12.586,0.192-11.145,5.332c1.009,3.627,9.224,5.957,11.337,3.219c0.48-5.212-9.224,0.096-10.088-4.66
			c1.345-4.107,11.433,0.408,12.971-0.576c1.489-3.315-2.522-4.804-3.002-7.206c1.249-1.153,3.651-0.745,2.834-3.219l-3.819-0.625
			c0.552,1.105,0.889,0.528,0.697,1.729c-1.681,0.552-2.042-0.48-2.522-2.042c1.033-0.769,2.69-1.081,2.018-2.57
			c-1.129-1.297-2.066-0.168-3.579,0.168c-0.24-0.865-1.105-4.011-1.633-4.42C172.952,141.549,170.382,141.933,169.901,143.711z"/>
		<path style="fill-rule:evenodd;clip-rule:evenodd;" d="M371.858,162.302c0.913-1.657,4.059-1.681,5.452-0.552
			C376.421,163.599,372.987,164.295,371.858,162.302z M376.854,143.446c0.793,0.961,1.009,0.048,1.705,1.441
			c0.408,0.841,0.336,2.402,0.312,3.363c-1.129,0.625-3.026,1.177-4.324,1.657c-1.417,0.552-4.107,0.769-4.636,1.009
			c1.201,3.723,7.878-0.312,8.959,0.312c0.673,1.321,0.625,7.542-0.552,8.647c-2.426,0.721-5.188-0.697-7.374,1.657
			c-0.649,2.522,1.729,4.372,4.059,4.348c3.219-0.024,3.867-2.258,5.549-3.195l1.369,1.153c-0.552,1.153-1.753,1.801-2.762,2.282
			c0.769,0.504,2.882-0.24,4.131-0.144c1.922,0.192,1.898,1.033,3.771-0.216c1.033-3.651-4.131-3.987-5.549-5.26l0.12-10.304
			c1.609-0.552,2.834,0,3.867-1.225c-0.048-2.066-1.85-1.801-3.603-1.946c-0.216-1.825,0.456-2.786-1.321-3.891
			C379.304,142.341,377.718,141.933,376.854,143.446z"/>
		<path style="fill-rule:evenodd;clip-rule:evenodd;" d="M451.41,201.814l0.072-0.12c1.081-1.153-6.461-20.513-7.566-22.939
			c-3.435-7.35-6.581-12.61-11.265-19.24c-4.684-6.629-7.734-11.049-13.475-17.006c-2.834-2.93-13.115-13.043-16.237-14.34
			c0.144,0.24,12.322,11.77,15.348,15.228c13.643,15.637,21.161,28.367,29.016,47.246
			C448.432,193.359,450.185,199.844,451.41,201.814z"/>
		<path style="fill-rule:evenodd;clip-rule:evenodd;" d="M229.157,154.471c-0.48,1.801,2.33,2.618,3.723,2.762
			c2.306,0.24,3.002-0.841,4.54-2.21c2.522-2.234,5.573-5.428,9.32-4.179c4.996,1.657,1.801,8.023-5.14,10.857
			c-1.033,0.408-4.636,1.249-5.092,1.633c6.053,2.21,21.522-5.837,14.748-11.746c-6.533-5.693-14.676,1.321-18.999,2.69
			C230.623,154.808,230.238,154.135,229.157,154.471z"/>
		<path style="fill-rule:evenodd;clip-rule:evenodd;" d="M338.086,155.048c-0.625,1.201-1.922,4.131-2.81,4.948
			c-1.753,1.657-4.035-0.12-4.9-1.874c-1.465-2.978,0.36-11.169-5.116-10.376c0.024,0.456,0.817,2.522,1.009,3.603
			c0.576,3.531,0.576,7.878,4.348,10.953c1.633,1.321,5.789,3.026,7.614,1.465c1.393-1.201-0.36-1.946,0.072-6.365l0.024-1.705
			C338.182,154.976,338.374,155.456,338.086,155.048z"/>
		<path style="fill-rule:evenodd;clip-rule:evenodd;" d="M265.499,157.906c-3.699-1.801,0.673-8.215,3.171-7.35
			C269.198,152.045,266.94,157.234,265.499,157.906z M269.943,149.836c3.987-0.576,6.653,2.642,5.308,6.437
			c-1.153,3.291-3.843,4.227-6.077,6.029c2.546,0.937,9.199-3.579,8.839-7.758c-0.456-5.02-6.677-7.086-10.929-4.516
			c-6.605,4.011-4.348,9.728-1.97,10.4c1.994,0.552,3.074-2.978,3.867-4.348C272.032,150.965,270.303,152.79,269.943,149.836z"/>
		<path style="fill-rule:evenodd;clip-rule:evenodd;" d="M368.063,154.063c-0.817,1.297-1.369,4.924-2.738,5.452
			c-0.24-2.882,0.961-5.621,1.417-8.431c0.432-2.594-0.408-6.293-3.387-6.509c2.618,9.007-1.874,12.682-0.096,18.639
			c1.153,3.891,4.107,5.38,4.059,0.192C367.318,162.014,368.135,154.207,368.063,154.063z"/>
		<path style="fill-rule:evenodd;clip-rule:evenodd;" d="M290.792,84.839c7.614,0.432,16.694,0.793,24.14,1.994
			c3.771,0.6,7.566,0.985,11.313,1.681c2.738,0.504,8.647,2.114,11.049,1.994c-2.258-1.249-18.495-4.804-21.93-5.284
			C305.588,83.83,300.688,82.941,290.792,84.839z"/>
		<path style="fill-rule:evenodd;clip-rule:evenodd;" d="M328.43,82.052c0.528-1.081-0.673,0.673,0-0.889l18.879,3.891
			c-4.083-2.882-28.007-8.143-33.892-7.902C314.235,78.161,326.533,81.788,328.43,82.052z"/>
		<path style="fill-rule:evenodd;clip-rule:evenodd;" d="M342.626,156.369c1.321,0.096,2.786-0.048,4.059,0.168
			c1.753,0.312,1.609,0.913,3.771,0.817c3.459-4.78-2.786-8.407-7.23-8.191c0.721,1.513,3.603,1.585,3.723,4.035
			C347.045,155.168,343.851,155,342.626,156.369z"/>
		<path style="fill-rule:evenodd;clip-rule:evenodd;" d="M243.761,73.237l-8.143,2.618c1.009,0.432,7.854-1.513,9.512-1.898
			c3.099-0.697,6.918-1.321,10.112-1.777c3.531-0.48,7.062-0.865,10.617-1.249c1.922-0.216,10.208-0.456,11.265-0.961
			c-2.546-1.273-13.763,0.096-17.054,0.649L243.761,73.237z"/>
		<path style="fill-rule:evenodd;clip-rule:evenodd;" d="M246.139,93.606c2.618-0.12,7.302-1.489,10.232-1.922
			c3.507-0.504,7.182-1.129,10.689-1.465c1.249-0.721,14.436-2.546,15.733-2.306c-7.182-1.057-24.716,1.946-33.099,4.275
			l-3.243,0.961C245.683,93.534,245.827,93.125,246.139,93.606z"/>
		<path style="fill-rule:evenodd;clip-rule:evenodd;" d="M226.227,99.707l0.552-0.24c0.144-0.408-0.288-0.264,0.576-0.288
			c0.576-0.745,3.291-1.898,4.444-2.498c0.168-0.072,0.576-0.264,0.721-0.384c0.624-0.504,0.576-0.072,0.288-0.6
			c-3.531,0.793-9.344,3.723-12.898,5.236c-2.066,0.865-4.348,1.85-6.197,2.93c-1.273,0.745-4.059,2.138-5.212,3.147
			c-0.48,0.432-0.144,0.144-0.48,0.48c3.05-0.769,5.933-2.834,8.911-4.011C219.862,102.277,223.249,100.644,226.227,99.707z"/>
		<path style="fill-rule:evenodd;clip-rule:evenodd;" d="M384.708,140.732c0.456,0.793,0.697,0.552,1.561,1.705
			c0.432,0.6,1.225,1.85,2.09,1.057C390.233,141.765,386.558,140.444,384.708,140.732z"/>
		<path style="fill-rule:evenodd;clip-rule:evenodd;" d="M385.885,144.912c1.129-2.162-1.874-3.05-3.555-2.714
			c0.264,0.625,1.009,1.057,1.441,1.633C384.54,144.864,384.396,145.512,385.885,144.912z"/>
	</g>
</g>
</svg>
